<?xml version="1.0" encoding="utf-8"?>
<!DOCTYPE svg PUBLIC "-//W3C//DTD SVG 1.1//EN" "http://www.w3.org/Graphics/SVG/1.1/DTD/svg11.dtd">
<svg version="1.1" id="Layer_1" xmlns="http://www.w3.org/2000/svg" xmlns:xlink="http://www.w3.org/1999/xlink" x="0px" y="0px"
	 viewBox="-1.1559 30.736 982.1559 921.9861" enable-background="new -1.1559 30.736 982.1559 921.9861" xml:space="preserve">
<g id="_x23_000000ff">
	<path stroke="#000000" stroke-width="0.0938" d="M394.35,44.79c21.16,20.7,38.44,45.47,50.23,72.64
		c7.81,18.17,12.68,37.67,13.62,57.45c3.58,40.35-10.1,80.37-30.96,114.44c-4.12,6.69-8.54,13.21-13.42,19.36
		c-19.05-19.07-35.09-41.2-47.23-65.27c-11.82-23.94-19.92-50.49-18.56-77.43c1.32-32.98,12.44-64.92,28.36-93.6
		C381.77,62.81,387.65,53.5,394.35,44.79z"/>
	<path stroke="#000000" stroke-width="0.0938" d="M619.01,120.96c6.49-22.5,23.23-40.73,42.61-53.18
		c7.75,17.5,11.23,37.38,7.35,56.3c-2.85,14.35-11.37,26.97-21.81,36.97c-6.83,6.53-14.5,12.2-22.83,16.68
		C616.19,160.19,613.47,139.67,619.01,120.96z"/>
	<path stroke="#000000" stroke-width="0.0938" d="M472.1,123.1c4.64-21.02,18.62-38.93,35.49-51.79
		c8.68,15.38,14.42,32.9,13.96,50.7c-0.63,11.27-3.46,22.54-9.11,32.37c-7.28,12.79-17.75,23.61-29.63,32.21
		C472.64,167.34,467.77,144.66,472.1,123.1z"/>
	<path stroke="#000000" stroke-width="0.0938" d="M280.27,144.94c-12.94-19.34-14.64-44.27-9.83-66.54
		c12.2,4.17,23.86,10.13,34.04,18.08c9.01,7.09,16.94,16.04,21.06,26.87c7,17.76,7.17,37.62,3.41,56.14
		C309.98,172.91,291.83,161.7,280.27,144.94z"/>
	<path stroke="#000000" stroke-width="0.0938" d="M567.2,100.18c5.81-5.24,11.88-10.19,18.28-14.69
		c8.57,16.31,14.67,33.91,18.32,51.97c4.41,22.43,4.56,46.25-3.16,68c-9.32,26.91-26.92,50.35-47.99,69.24
		c-5.86,5.22-11.9901,10.15-18.52,14.51c-8.79-15.94-15.05-33.24-18.8-51.04c-4.63-22.42-4.68-46.25,2.89-68.05
		C527.72,142.85,545.99,119.43,567.2,100.18z"/>
	<path stroke="#000000" stroke-width="0.0938" d="M753.67,153.7c16.14-8.83,34.91-11.68,53.11-11.53
		c-3.66,18.55-11.94,36.7-25.78,49.85c-7.24,6.25-14.51,12.71-23.25,16.83c-13.35,6.59-28.33,9.6-43.19,9.58
		c2.93-15.63,8.84-30.78,17.73-43.98C737.95,166.23,744.73,158.42,753.67,153.7z"/>
	<path stroke="#000000" stroke-width="0.0938" d="M199.64,149.24c34.43,4.24,68.35,15.05,97.97,33.28
		c16.03,10.05,30.87,22.46,42,37.88c16.63,22.7,26.64,49.65,32.19,77.08c3.04,15.32,4.84,30.91,4.93,46.54
		c-28.65-3.48-56.75-12.08-82.31-25.53c-30.71-16.12-56.45-41.8-72.05-72.83C207.47,215.86,200.17,182.47,199.64,149.24z"/>
	<path stroke="#000000" stroke-width="0.0938" d="M650.82,178.78c14.41-10.76,29.82-20.28,46.18-27.79
		c5.57,17.89,8.81,36.47,10.22,55.14c1.76,24.8-0.17,50.13-8.04,73.81c-5.28,15.56-12.77,30.43-22.7,43.55
		c-16.45,21.88-38.08,39.47-61.54,53.37c-8.38,4.93-17.02,9.43-25.97,13.21c-6.28-19.41-9.77-39.68-10.95-60.02
		c-1.5-27.8,1.88-56.3,12.92-82.03C604.5,220.25,626.3,197.24,650.82,178.78z"/>
	<path stroke="#000000" stroke-width="0.0938" d="M774,222.82c24.59-11.3,51.75-16.75,78.76-16.92
		c-2.23,16.23-6.54,32.16-12.52,47.4c-7.16,18.06-17.08,35.26-30.68,49.26c-19.97,20.45-46.98,32.72-74.63,38.73
		c-13.07,2.82-26.43,4.52-39.82,4.47c4.37-34.57,17.35-68.83,40.51-95.23C745.97,238.37,759.68,229.6,774,222.82z"/>
	<path stroke="#000000" stroke-width="0.0938" d="M442.99,285.11c7.31-27.43,24.31-51.55,45.17-70.45
		c10.31,15.36,18.16,32.41,22.96,50.29c5.22,19.51,6.03,40.57-0.2,59.96c-8.08,25.35-24.42,47.48-44.02,65.18
		c-9.93-15.58-17.57-32.66-22.39-50.5C439.86,321.91,438.03,302.94,442.99,285.11z"/>
	<path stroke="#000000" stroke-width="0.0938" d="M59.81,239.5c18.26-5.16,37.22-7.8,56.19-8.13c16.61-0.19,33.34,1.61,49.26,6.5
		c14.46,4.14,27.22,12.68,38.7,22.19c21.03,18.01,37.48,41.11,48.94,66.24c-15.2,4.75-31.01,7.48-46.89,8.55
		c-20.4,1.3-41.24-0.5-60.61-7.3c-22.97-8.23-42.19-24.57-57.62-43.13C76.58,270.74,67.01,255.66,59.81,239.5z"/>
	<path stroke="#000000" stroke-width="0.0938" d="M516.97,353.04c7.82-19.89,24.0601-35.38,42.01-46.37
		c7.94,20.39,10.43,43.7,3.24,64.67c-7.5,19.89-24.02,35.14-42.27,45.31C511.73,396.69,509.6,373.58,516.97,353.04z"/>
	<path stroke="#000000" stroke-width="0.0938" d="M219.04,347.48c24.77-10.37,52.17-15.77,79-12.48
		c24.18,2.76,45.59,16.51,62.87,32.99c10.09,9.77,19.12,20.68,26.48,32.65c-20.61,8.65-42.92,13.79-65.34,13.42
		c-21.48-0.32-42.61-7.66-60.09-20.03C244.59,381.76,230.06,365.62,219.04,347.48z"/>
	<path stroke="#000000" stroke-width="0.0938" d="M396.09,383.83c-5.42-16.25-5.25-33.97-1.77-50.61
		c19.64,6.9,38.54,18.67,49.92,36.52c12.22,18.98,12.98,43.04,8.58,64.58c-13.41-4.79-25.97-12.08-36.61-21.56
		C407.45,404.82,399.8,395.19,396.09,383.83z"/>
	<path stroke="#000000" stroke-width="0.0938" d="M756.84,346.81c18.3799-7.7,38.31-11.26,58.18-11.84
		c27.77-0.69,55.66,3.67,82,12.47c-12.69,27.05-30.47,51.81-52.39,72.14c-14.47,13.29-31.09,24.41-49.39,31.68
		c-31.69,12.61-66.82,14.31-100.32,9.54c-13.12-1.91-26.13-4.71-38.74-8.83c12.68-28.46,31.26-54.38,54.34-75.33
		C724.25,364.34,739.82,353.97,756.84,346.81z"/>
	<path stroke="#000000" stroke-width="0.0938" d="M70.09,340.58c20.36-4.15,41.37-5.68,62.05-3.32
		c15.66,1.75,30.98,6.07,45.47,12.23c27.29,11.89,50.59,31.51,69.77,54.05c8.59,10.18,16.5,20.96,23.21,32.48
		c-22.07,9.91-45.68,16.33-69.67,19.36c-19.25,2.36-38.89,2.24-57.98-1.35c-28.73-5.09-54.52-20.8-75.95-40.1
		c-18.22-16.66-33.97-36.12-46.11-57.63C36.6,349.19,53.2,344.08,70.09,340.58z"/>
	<path stroke="#000000" stroke-width="0.0938" d="M644.79,382.72c10.13-2.46,20.58-3.58,31-3.45c-3.4,18.04-10.42,35.94-22.85,49.71
		c-17.01,18.34-43.05,26.1-67.56,24.78c2.65-18.33,9.61-36.46,21.96-50.47C616.89,392.22,630.88,386.2,644.79,382.72z"/>
	<path stroke="#000000" stroke-width="0.0938" d="M463.24,444.05c-0.23-23.92,12.06-46.34,28.46-63.06
		c10.98,14.78,18.94,32.43,19.82,51.02c0.21,10.92-1.3,21.98-5.41,32.14c-5.12,12.84-13.24,24.42-23.27,33.9
		C471.89,482.17,463.73,463.57,463.24,444.05z"/>
	<path stroke="#000000" stroke-width="0.0938" d="M531.16,427.16c11.9301-19.02,33.09-30.26,54.3701-35.52
		c1.23,21.52-2.33,44.22-14.4301,62.46c-12.38,17.89-32.45,28.99-52.93,35.07C517.04,467.94,520.01,445.63,531.16,427.16z"/>
	<path stroke="#000000" stroke-width="0.0938" d="M899.85,397.35c11.88-2.25,24.17-2.29,36.11-0.36
		c-5.13,17.44-13.92,34.22-27.29,46.74c-8.97,8.47-20.5,13.91-32.52,16.4c-12.39,2.59-25.2401,2.66-37.72,0.7
		c5.05-17.29,13.76-33.92,26.92-46.43C874.79,405.38,887.08,399.73,899.85,397.35z"/>
	<path stroke="#000000" stroke-width="0.0938" d="M364.15,418.27c21-2.29,43.5,1.19,61.13,13.43c18.61,12.35,30.23,32.87,36.41,53.9
		c-21.16,1.18-43.41-2.23-61.52-13.82C381.72,459.51,370.41,439.05,364.15,418.27z"/>
	<path stroke="#000000" stroke-width="0.0938" d="M275.66,439.48c18.02-8,38.61-11.46,58.01-6.98
		c14.44,3.27,26.83,12.49,36.51,23.42c6.04,6.86,11.31,14.44,15.43,22.6c-18.82,6.9-40.02,9.53-59.39,3.38
		C304.61,475,287.7,458.17,275.66,439.48z"/>
	<path stroke="#000000" stroke-width="0.0938" d="M13.81,453.61c19.39-9.63,41.85-15.15,63.39-10.67
		c21.02,5.74,38.85,20.14,51.85,37.3c-19.42,10.27-42.08,15.84-64,12.33C43.9,486.55,26.28,471.35,13.81,453.61z"/>
	<path stroke="#000000" stroke-width="0.0938" d="M567.67,474.88c25.97-12.09,55.86-17.87,84.16-11.65
		c11.06,2.89,22.16,6.1,32.24,11.61c21.34,11.51,39,29.24,51.94,49.63c-19.18,8.84-39.97,14.4301-61.07,15.7
		c-15.13,0.64-30.91-0.47-44.66-7.33C604.16,520.44,583,499.13,567.67,474.88z"/>
	<path stroke="#000000" stroke-width="0.0938" d="M774.59,471.38c20.59-5.72,42.95-5.75,63.29,1.07
		c22.25,7.72,41.78,22.17,57.39,39.64c-14.74,9.79-30.97,17.3799-47.98,22.24c-16.91,4.7-35.14,6.63-52.25,1.82
		c-26.12-6.9901-49.31-22.65-68.12-41.79C741.28,483.97,757.5,476.1,774.59,471.38z"/>
	<path stroke="#000000" stroke-width="0.0938" d="M171.26,489.05c20.4-11.55,43.22-19.38,66.69-20.99
		c21.03-1.47,42.29,3.92,60.49,14.45c17.47,10.1,32.75,23.97,44.71,40.21c-16.81,9.58-35.27,16.41-54.37,19.6
		c-20.45,3.54-41.91,1.21-60.95-7.14C205.27,525.28,185.9,508.75,171.26,489.05z"/>
	<path stroke="#000000" stroke-width="0.0938" d="M386.05,487.45c12.14-3.18,25.1-2.32,36.99,1.52c14.43,4.64,27.58,12.86,38.7,23.1
		c-15.1,12.92-33.72,22.49-53.67,24.51c-24.1,2.32-47.28-9.21-65.17-24.5C355.16,500.78,369.8,491.63,386.05,487.45z"/>
	<path stroke="#000000" stroke-width="0.0938" d="M493.33,504.97c19.46-9.22,41.89-14.26,63.23-9.49
		c21.73,4.63,39.49,20.12,52.04,37.85c-16.71,8.39-35.78,13.01-54.5,10.75c-9.33-1.51-18.7599-3.56-27.08-8.22
		C513.52,528.46,502.3,517.39,493.33,504.97z"/>
	<path stroke="#000000" stroke-width="0.0938" d="M479.26,506.65c13.68,12.01,25.34,27.21,30.34,44.94c2.05,8.97,3.7,18.19,3,27.44
		c-1.03,15.14-6.13,29.86-13.81,42.89c-13.88-11.31-25.56-25.76-32.2-42.49c-2.75-6.79-4.3-14.08-4.11-21.42
		C462.65,539.68,469.45,521.93,479.26,506.65z"/>
	<path stroke="#000000" stroke-width="0.0938" d="M80.62,515.48c11.07-3.88,22.56-7.12,34.36-7.5c23.35-0.88,46.56,5.67,67.13,16.44
		c-8.62,12.65-19.07,24.04-30.82,33.85c-12.46,10.29-26.71,18.8-42.4,22.99c-17.38,4.06-35.61,2.86-52.89-1.08
		c-12.75-2.97-25.19-7.36-36.92-13.21C34.52,544.86,55.26,525.47,80.62,515.48z"/>
	<path stroke="#000000" stroke-width="0.0938" d="M401.26,565.27c12.22-17.99,32.64-28.75,53.34-33.82
		c1.17,21.37-2.28,43.92-14.23,62.08c-13.16,17.72-33.86,28.47-54.95,33.66C384.28,605.67,388.53,583.05,401.26,565.27z"/>
	<path stroke="#000000" stroke-width="0.0938" d="M330.3,549.3c21.39-12.44,47.74-13.6,71.25-7.21
		c-7.98,16.97-19.86,32.53-35.59,42.99c-10.23,7.01-22.64,10.11-34.9,10.76c-12.08,0.64-24.24-0.89-35.9-4.06
		C302.3,574.63,314.09,558.81,330.3,549.3z"/>
	<path stroke="#000000" stroke-width="0.0938" d="M863.2,545.63c17.04-3.53,35.12-4.11,51.89,1.07
		c12.24,3.67,22.49,11.99,30.74,21.52c8.64,10.11,15.41,21.78,20.21,34.17c-21.72,4.36-45.44,3.39-65.37-7.02
		C883,583.68,870.69,565.19,863.2,545.63z"/>
	<path stroke="#000000" stroke-width="0.0938" d="M576.5,556.27c19.43-10.21,42.63-14.43,64.09-8.8
		c21.02,5.35,38.18,20.36,51.19,37.17c-19.47,9.73-42.27,14.25-63.73,9.35C606.51,589.3,588.95,573.86,576.5,556.27z"/>
	<path stroke="#000000" stroke-width="0.0938" d="M682.7,556.26c22.41-6.99,45.89-10.56,69.35-10.77
		c32.12-0.34,65.11,6.57,92.3,24.26c25.88,16.56,46.76,39.97,63.3,65.66c5.92,9.27,11.33,18.88,15.92,28.89
		c-26.99,8.25-55.44,11.89-83.63,10.5c-21.02-1.15-42.01-5.62-61.11-14.61c-26.63-12.2-49.06-32.19-66.89-55.2
		C700.37,589.95,690.33,573.66,682.7,556.26z"/>
	<path stroke="#000000" stroke-width="0.0938" d="M519.93,547.38c20.38,1.96,40.82,9.52,55.79,23.82
		c16.4301,15.05,23.08,37.86,24,59.52c-20.39-1.92-41.52-8.29-56.54-22.85C528.05,591.64,520.91,569.24,519.93,547.38z"/>
	<path stroke="#000000" stroke-width="0.0938" d="M163.81,572.85c29.52-15.04,63.27-19.92,96.11-18.88
		c12.47,0.44,24.94,1.64,37.19,4.07c-9.61,31.45-25.21,61.34-46.88,86.19c-12.83,14.46-27.99,27.18-45.52,35.53
		c-31.52,15.13-67.04,19.94-101.71,19.08c-10.31-0.3-20.61-1.1-30.8-2.67c9.6-31.49,25.13-61.39,46.47-86.54
		C131.42,594.9,146.38,581.74,163.81,572.85z"/>
	<path stroke="#000000" stroke-width="0.0938" d="M437.11,625.09c5.16-11.26,11.53-21.9901,19.18-31.7401
		c10.66,10.4,19.75,22.39,27.07,35.35c8.82,15.66,14.74,33.2,15.46,51.25c1.33,18.18-2.81,36.39-9.86,53.08
		c-5.7,13.39-13.08,26.08-22.05,37.53c-16.64-17.2-29.76-38.14-36.56-61.17c-3.38-11.14-4.32-22.82-4.72-34.39
		C425.41,657.74,430.01,640.72,437.11,625.09z"/>
	<path stroke="#000000" stroke-width="0.0938" d="M519.98,598.66c13.54,9.15,25.14,21.78,31.39,37.02
		c3.12,7.37,4.03,15.39,5.29,23.23c1.98,19.01-3.35,38.13-11.86,55.02c-11.72-9.58-22.07-21.03-29.61-34.2
		c-4.4-7.94-8.05-16.61-8.43-25.79C505.55,634.72,510.98,615.52,519.98,598.66z"/>
	<path stroke="#000000" stroke-width="0.0938" d="M329.02,608.11c14.48-3.15,29.36-4.58,44.18-4.08
		c-2.97,14.95-8.16,29.4399-15.01,43.05c-8.13,15.99-19.02,30.78-32.99,42.14c-13.79,11.1201-30.48,18.16-47.62,22.19
		c-13.93,3.23-28.28,4.73-42.57,4.2401c2.45-15.22,7.04-30.09,13.53-44.06c7.48-16.02,17.92-30.96,31.92-41.9301
		C294.58,618.63,311.64,611.96,329.02,608.11z"/>
	<path stroke="#000000" stroke-width="0.0938" d="M608.39,609.32c20.2-4.68,41.41-5.36,61.81-1.51
		c20.49,3.85,39.98,13.34,55.25,27.6c16.75,15.69,29.25,35.72,37.08,57.23c-20.96,5.56-43.26,6.77-64.54,2.32
		c-15.64-3.19-30.18-10.5-43.07-19.77C633.08,658.74,617.49,634.9,608.39,609.32z"/>
	<path stroke="#000000" stroke-width="0.0938" d="M391.63,637.58c8.56-5.37,17.86-9.55,27.57-12.35
		c2.86,18.52,1.58,38.28-6.73,55.31c-3.95,7.38-8.41,14.63-14.4,20.54c-11.26,11.26-25.75,18.98-40.95,23.45
		c-2.71-17.39-2.17-35.71,4.12-52.3C366.78,657.47,378.49,645.85,391.63,637.58z"/>
	<path stroke="#000000" stroke-width="0.0938" d="M571.26,637.63c30.82,11.02,59.74,27.96,83.57,50.48
		c13.69,13.08,25.41,28.35,33.63,45.45c13.38,27.71,18.09,58.91,17.35,89.47c-0.42,15.06-1.99,30.12-5.27,44.84
		c-24.96-8.83-48.57-21.6-69.55-37.77c-15.86-12.35-30.12-26.99-40.83-44.0699c-16.06-25.9901-22.86-56.7401-24.04-87
		C565.38,678.46,566.97,657.77,571.26,637.63z"/>
	<path stroke="#000000" stroke-width="0.0938" d="M764.07,706.7c16.71-7.98,35.23-13.24,53.89-12.12
		c10.32,0.5,20.09,4.51,28.98,9.55c12.64,7.37,23.66,17.45,32.42,29.16c-12.38,6.93-26.17,11.52-40.34,12.71
		c-11.72,1.07-23.57-1.21-34.46-5.52C788.08,733.58,774.34,721.15,764.07,706.7z"/>
	<path stroke="#000000" stroke-width="0.0938" d="M152.47,713.68c18.52-14.88,43.99-17.64,66.81-14.06
		c-5.36,18-14.52,35.4-28.71,47.98c-9.4,8.58-21.98,12.65-34.35,14.52c-11.43,1.61-23.1,1.39-34.48-0.46
		C127.39,743.34,137.44,725.87,152.47,713.68z"/>
	<path stroke="#000000" stroke-width="0.0938" d="M379.39,727.39c8.17-5.21,16.71-9.88,25.64-13.68
		c5.59,18.19,8.35,37.22,8.47,56.24c0.04,23.49-4.76,47.41-16.67,67.86c-14.28,24.68-36.63,43.81-61.2,57.79
		c-6.2,3.52-12.59,6.72-19.2,9.42c-4.73-16.9-7.05-34.45-7.26-51.98c-0.15-23.12,3.94-46.64,14.62-67.31
		C336.28,761.47,356.58,741.99,379.39,727.39z"/>
	<path stroke="#000000" stroke-width="0.0938" d="M252.11,731.15c24.97-11.58,53.06-15.77,80.41-13.86
		c-2.91,16.91-8.14,33.42-15.33,48.9901c-7.31,15.68-16.89,30.47-29.29,42.62c-10.88,10.49-23.15,19.71-37.02,25.89
		c-25.34,11.44-53.71,15.44-81.33,13.58c5.94-32.89,19.89-65.21,43.55-89.26C224.72,748.06,237.44,737.85,252.11,731.15z"/>
	<path stroke="#000000" stroke-width="0.0938" d="M709.29,717.26c30.93,4.69,61.56,18.2,82.58,41.92
		c10.53,11.62,17.31,26.18,21.53,41.17c3.8199,13.89,5.8,28.31,5.71,42.72c-25.97-2.91-51.92-12.09-71.92-29.29
		c-11.92-10.53-21.48-23.7401-27.56-38.45C712.04,757.03,708.69,737.03,709.29,717.26z"/>
	<path stroke="#000000" stroke-width="0.0938" d="M497.36,761.35c6.88-15.69,15.62-30.61,26.17-44.12
		c24.6899,24.83,44.0099,56.05,51.14,90.6c4.02,17.74,1.57,36.22-3.03,53.59c-6.85,24.67-18.73,47.85-33.93,68.4
		c-20.02-19.97-36.11-44.16-45.69-70.82c-4.07-11.61-6.87-23.73-7.58-36.02C483.6,801.75,488.96,780.71,497.36,761.35z"/>
	<path stroke="#000000" stroke-width="0.0938" d="M420.37,810.1c5.35-15.34,15.36-28.7,27.07-39.79
		c10.15,16.08,16.76,34.66,17.76,53.72c0.96,13.11-3.46,26-9.71,37.35c-5.42,9.64-12.34,18.45-20.45,25.98
		c-11.52-15.57-19.08-34.72-18.48-54.28C417.12,825.33,417.77,817.47,420.37,810.1z"/>
	<path stroke="#000000" stroke-width="0.0938" d="M596.43,871.12c-1.58-13.58-0.3-27.42,3.15-40.62c15.72,6.6,30,17.12,40.13,30.92
		c7.02,9.48,11.49,20.76,12.91,32.48c1.89,14.95,0.43,30.23-3.39,44.77c-12.06-6.24-23.27-14.29-32.57-24.23
		C605.56,902.64,598.26,887.24,596.43,871.12z"/>
</g>
</svg>
